<svg xmlns="http://www.w3.org/2000/svg" xmlns:xlink="http://www.w3.org/1999/xlink" width="375" height="812" viewBox="0 0 375 812">
  <defs>
    <linearGradient id="linear-gradient" x1="0.521" x2="0.521" y2="1" gradientUnits="objectBoundingBox">
      <stop offset="0" stop-color="#ee7795"/>
      <stop offset="1" stop-color="#ef8876" stop-opacity="0"/>
    </linearGradient>
    <linearGradient id="linear-gradient-2" x1="0.5" y1="-0.518" x2="0.5" y2="0.403" gradientUnits="objectBoundingBox">
      <stop offset="0" stop-color="#282539" stop-opacity="0"/>
      <stop offset="1" stop-color="#282539"/>
    </linearGradient>
    <linearGradient id="linear-gradient-3" x1="0.961" y1="0.294" x2="0.521" y2="1" gradientUnits="objectBoundingBox">
      <stop offset="0" stop-color="#ee7795"/>
      <stop offset="1" stop-color="#ef8876"/>
    </linearGradient>
    <linearGradient id="linear-gradient-4" x1="0.5" y1="1" x2="1.047" y2="0.178" gradientUnits="objectBoundingBox">
      <stop offset="0" stop-color="#7195f7"/>
      <stop offset="1" stop-color="#3c52d6"/>
    </linearGradient>
    <linearGradient id="linear-gradient-5" x1="0.5" y1="1" x2="1.047" y2="0.178" gradientUnits="objectBoundingBox">
      <stop offset="0" stop-color="#7195f7" stop-opacity="0.502"/>
      <stop offset="1" stop-color="#3c52d6" stop-opacity="0.502"/>
    </linearGradient>
    <linearGradient id="linear-gradient-9" x1="0.961" y1="0.294" x2="0.521" y2="1" gradientUnits="objectBoundingBox">
      <stop offset="0" stop-color="#ee7795" stop-opacity="0.502"/>
      <stop offset="1" stop-color="#ef8876" stop-opacity="0.502"/>
    </linearGradient>
    <linearGradient id="linear-gradient-13" x1="0.96" y1="0.301" x2="0.5" y2="1" gradientUnits="objectBoundingBox">
      <stop offset="0" stop-color="#52a5c4"/>
      <stop offset="0.493" stop-color="#62bac4"/>
      <stop offset="1" stop-color="#71cec4"/>
    </linearGradient>
    <linearGradient id="linear-gradient-14" x1="0.96" y1="0.301" x2="0.5" y2="1" gradientUnits="objectBoundingBox">
      <stop offset="0" stop-color="#52a5c4" stop-opacity="0.502"/>
      <stop offset="0.493" stop-color="#62bac4" stop-opacity="0.502"/>
      <stop offset="1" stop-color="#71cec4" stop-opacity="0.502"/>
    </linearGradient>
    <linearGradient id="linear-gradient-17" x1="0.5" y1="1" x2="1" y2="0.186" gradientUnits="objectBoundingBox">
      <stop offset="0" stop-color="#9a57eb"/>
      <stop offset="1" stop-color="#6f6bf2"/>
    </linearGradient>
    <linearGradient id="linear-gradient-18" x1="0.5" y1="1" x2="1" y2="0.186" gradientUnits="objectBoundingBox">
      <stop offset="0" stop-color="#9a57eb" stop-opacity="0.502"/>
      <stop offset="1" stop-color="#6f6bf2" stop-opacity="0.502"/>
    </linearGradient>
    <linearGradient id="linear-gradient-20" x1="0" y1="0.5" x2="1" y2="0.5" xlink:href="#linear-gradient-3"/>
    <clipPath id="clip-Home">
      <rect width="375" height="812"/>
    </clipPath>
  </defs>
  <g id="Home" clip-path="url(#clip-Home)">
    <rect width="375" height="812" fill="#fff"/>
    <path id="Rectangle" d="M0,0H375V812H0Z" fill="#282539"/>
    <g id="Group_4" data-name="Group 4" transform="translate(68 644)">
      <text id="Ethereum" transform="translate(0 17)" fill="#fff" font-size="16" font-family="SegoeUI, Segoe UI"><tspan x="0" y="0">Ethereum</tspan></text>
      <text id="_17_Sep_2019" data-name="17 Sep 2019" transform="translate(0 34)" fill="#fff" font-size="14" font-family="SegoeUI, Segoe UI" opacity="0.6"><tspan x="0" y="0">17 Sep 2019</tspan></text>
    </g>
    <g id="Group_3" data-name="Group 3" transform="translate(178 644)">
      <text id="EHT_24" data-name="EHT 24" transform="translate(1 17)" fill="#fff" font-size="16" font-family="SegoeUI, Segoe UI"><tspan x="0" y="0">EHT 24</tspan></text>
      <text id="_11_208" data-name="$11,208" transform="translate(0 34)" fill="#fff" font-size="14" font-family="SegoeUI, Segoe UI" opacity="0.6"><tspan x="0" y="0">$11,208</tspan></text>
    </g>
    <path id="Rectangle_3" data-name="Rectangle 3" d="M20.244,12.774C29.882,12.774,33.757,0,48.343,0c12.3,0,16.312,25.8,25.982,25.8C85.407,25.8,88,22.12,88,22.12V33.125H0S10.605,12.774,20.244,12.774Z" transform="translate(270 646.875)" fill="url(#linear-gradient)"/>
    <g id="Group_7" data-name="Group 7" transform="translate(16 642)">
      <path id="Oval_Copy_4" data-name="Oval Copy 4" d="M20,0A20,20,0,1,1,0,20,20,20,0,0,1,20,0Z" fill="rgba(10,253,220,0.5)" opacity="0.2"/>
      <path id="Oval_Copy_3" data-name="Oval Copy 3" d="M16.364,0A16.364,16.364,0,1,1,0,16.364,16.364,16.364,0,0,1,16.364,0Z" transform="translate(3.636 3.636)" fill="rgba(10,253,220,0.5)"/>
      <path id="Oval_Copy_2" data-name="Oval Copy 2" d="M12.727,0A12.727,12.727,0,1,1,0,12.727,12.727,12.727,0,0,1,12.727,0Z" transform="translate(7.273 7.273)" fill="rgba(10,253,220,0.5)"/>
      <g id="Ethereum_logo_2014" transform="translate(14 10)">
        <path id="Shape" d="M.131,0,0,.445V13.367l.131.131,6-3.546Z" transform="translate(5.867)" fill="#fff"/>
        <path id="Shape-2" data-name="Shape" d="M6,0,0,9.953,6,13.5V0Z" fill="#fff"/>
        <path id="Shape-3" data-name="Shape" d="M.074,3.544,0,3.634v4.6l.074.216L6.076,0Z" transform="translate(5.924 11.09)" fill="#fff"/>
        <path id="Shape-4" data-name="Shape" d="M6,8.453V3.544L0,0Z" transform="translate(0 11.09)" fill="#fff"/>
        <path id="Shape-5" data-name="Shape" d="M0,6.272,6,2.726,0,0Z" transform="translate(5.998 7.226)" fill="#fff"/>
        <path id="Shape-6" data-name="Shape" d="M0,2.726,6,6.272V0Z" transform="translate(0 7.226)" fill="#fff"/>
      </g>
    </g>
    <path id="Path_6" data-name="Path 6" d="M0,39.158s8.816-23.187,24.69-26.9S38.371-1.25,52.019.133s12.636,26.074,24.9,26.074,13.419-6.628,13.419-6.628" transform="translate(267.661 646.714)" fill="none" stroke="#ef8876" stroke-miterlimit="10" stroke-width="1"/>
    <path id="Rectangle_5" data-name="Rectangle 5" d="M0,0H375V207H0Z" transform="translate(0 605)" fill="url(#linear-gradient-2)"/>
    <path id="Rectangle_2" data-name="Rectangle 2" d="M0,0H375V204.246s-23.4-22.1-69.9-22.1S247.739,218.326,187.5,220.6,96.476,182.141,53.428,182.141,0,204.246,0,204.246Z" fill="url(#linear-gradient-3)"/>
    <g id="iPhone_X_Home_Indicator_Home_Indicator_-_On_Dark" data-name="iPhone X/Home Indicator/Home Indicator - On Dark" transform="translate(0 778)">
      <rect id="iPhone_X_Home_Indicator_Home_Indicator_-_On_Dark_background" data-name="iPhone X/Home Indicator/Home Indicator - On Dark background" width="375" height="34" fill="none"/>
      <path id="Rectangle_24" data-name="Rectangle 24" d="M2.5,0h129a2.5,2.5,0,0,1,0,5H2.5a2.5,2.5,0,0,1,0-5Z" transform="translate(121 20)" fill="#fff" opacity="0.14"/>
    </g>
    <g id="iPhone_X_Status_Bars_Status_Bar_White_" data-name="iPhone X/Status Bars/Status Bar (White)">
      <rect id="iPhone_X_Status_Bars_Status_Bar_White_background" data-name="iPhone X/Status Bars/Status Bar (White) background" width="375" height="44" fill="none"/>
      <g id="iPhone_X_Status_Bars_Status_Bar_Black_" data-name="iPhone X/Status Bars/Status Bar (Black)">
        <path id="Rectangle-2" data-name="Rectangle" d="M0,0H375V44H0Z" fill="none"/>
        <g id="Battery" transform="translate(336 17)">
          <g id="Border" transform="translate(0 0.333)" fill="none" stroke-miterlimit="10" opacity="0.35">
            <path d="M2.667,0H19.333A2.667,2.667,0,0,1,22,2.667v6a2.667,2.667,0,0,1-2.667,2.667H2.667A2.667,2.667,0,0,1,0,8.667v-6A2.667,2.667,0,0,1,2.667,0Z" stroke="none"/>
            <path d="M 2.666669845581055 0.9999961853027344 C 1.747669219970703 0.9999961853027344 1 1.747666358947754 1 2.666666984558105 L 1 8.666666030883789 C 1 9.585666656494141 1.747669219970703 10.33333683013916 2.666669845581055 10.33333683013916 L 19.33333015441895 10.33333683013916 C 20.2523307800293 10.33333683013916 21 9.585666656494141 21 8.666666030883789 L 21 2.666666984558105 C 21 1.747666358947754 20.2523307800293 0.9999961853027344 19.33333015441895 0.9999961853027344 L 2.666669845581055 0.9999961853027344 M 2.666669845581055 -3.814697265625e-06 L 19.33333015441895 -3.814697265625e-06 C 20.80608940124512 -3.814697265625e-06 22 1.193906784057617 22 2.666666984558105 L 22 8.666666030883789 C 22 10.13942623138428 20.80608940124512 11.33333683013916 19.33333015441895 11.33333683013916 L 2.666669845581055 11.33333683013916 C 1.193910598754883 11.33333683013916 0 10.13942623138428 0 8.666666030883789 L 0 2.666666984558105 C 0 1.193906784057617 1.193910598754883 -3.814697265625e-06 2.666669845581055 -3.814697265625e-06 Z" stroke="none" fill="#fff"/>
          </g>
          <path id="Cap" d="M0,0V4A2.17,2.17,0,0,0,1.328,2,2.17,2.17,0,0,0,0,0" transform="translate(23 4)" fill="#fff" opacity="0.4"/>
          <path id="Capacity" d="M1.333,0H16.667A1.333,1.333,0,0,1,18,1.333V6a1.333,1.333,0,0,1-1.333,1.333H1.333A1.333,1.333,0,0,1,0,6V1.333A1.333,1.333,0,0,1,1.333,0Z" transform="translate(2 2.333)" fill="#fff"/>
        </g>
        <path id="Wifi" d="M7.415,10.873l-2-2.016a.313.313,0,0,1,.01-.456,3.421,3.421,0,0,1,4.419,0,.31.31,0,0,1,.1.226.315.315,0,0,1-.094.23l-2,2.016a.311.311,0,0,1-.443,0Zm3.515-3.53a4.9,4.9,0,0,0-6.585,0,.311.311,0,0,1-.434-.006L2.758,6.17a.322.322,0,0,1,0-.459,7.158,7.158,0,0,1,9.752,0,.322.322,0,0,1,.005.459L11.364,7.337a.311.311,0,0,1-.434.006Zm2.66-2.687a8.64,8.64,0,0,0-11.907,0,.309.309,0,0,1-.434,0L.094,3.486a.322.322,0,0,1,0-.456,10.9,10.9,0,0,1,15.08,0,.323.323,0,0,1,0,.456L14.023,4.652a.307.307,0,0,1-.433,0Z" transform="translate(315.694 17.331)" fill="#fff"/>
        <path id="Cellular_Connection" data-name="Cellular Connection" d="M15,10.667a1,1,0,0,1-1-1V1a1,1,0,0,1,1-1h1a1,1,0,0,1,1,1V9.667a1,1,0,0,1-1,1Zm-4.667,0a1,1,0,0,1-1-1V3.334a1,1,0,0,1,1-1h1a1,1,0,0,1,1,1V9.667a1,1,0,0,1-1,1Zm-4.667,0a1,1,0,0,1-1-1v-4a1,1,0,0,1,1-1h1a1,1,0,0,1,1,1v4a1,1,0,0,1-1,1ZM1,10.667a1,1,0,0,1-1-1v-2a1,1,0,0,1,1-1H2a1,1,0,0,1,1,1v2a1,1,0,0,1-1,1Z" transform="translate(293.667 17.667)" fill="#fff"/>
        <g id="Time_Style" data-name="Time Style" transform="translate(21 13)">
          <rect id="iPhone_X_Overrides_Time_White_background" data-name="iPhone X/Overrides/Time White background" width="54" height="21" fill="none"/>
          <text id="_Time" data-name="↳ Time" transform="translate(0 1.273)" fill="#fff" font-size="14" font-family="SegoeUI, Segoe UI"><tspan x="14.582" y="15" letter-spacing="-0.02em">9:4</tspan><tspan y="15">1</tspan></text>
        </g>
      </g>
    </g>
    <text id="ETH" transform="translate(171 69)" fill="#fff" font-size="20" font-family="SegoeUI, Segoe UI" letter-spacing="-0.037em"><tspan x="0" y="0">ETH</tspan></text>
    <text id="BTC" transform="translate(221 65)" fill="#fff" font-size="12" font-family="SegoeUI, Segoe UI" letter-spacing="-0.037em" opacity="0.2"><tspan x="0" y="0">BTC</tspan></text>
    <text id="LTC" transform="translate(134 65)" fill="#fff" font-size="12" font-family="SegoeUI, Segoe UI" letter-spacing="-0.037em" opacity="0.2"><tspan x="0" y="0">LTC</tspan></text>
    <path id="Oval" d="M2,0A2,2,0,1,1,0,2,2,2,0,0,1,2,0Z" transform="translate(178 76)" fill="#fff"/>
    <path id="Oval_Copy" data-name="Oval Copy" d="M2,0A2,2,0,1,1,0,2,2,2,0,0,1,2,0Z" transform="translate(185.5 76)" fill="#fff" opacity="0.4"/>
    <path id="Oval_Copy_5" data-name="Oval Copy 5" d="M2,0A2,2,0,1,1,0,2,2,2,0,0,1,2,0Z" transform="translate(193 76)" fill="#fff" opacity="0.4"/>
    <text id="Total_Balance" data-name="Total Balance" transform="translate(139 173)" fill="#fff" font-size="16" font-family="SegoeUI, Segoe UI" opacity="0.7"><tspan x="0" y="0">Total Balance</tspan></text>
    <text id="_349_54" data-name="349,54" transform="translate(110 145)" fill="#fff" font-size="52" font-family="SegoeUI, Segoe UI"><tspan x="0" y="0">349,54</tspan></text>
    <text id="_ETH_0_15" data-name="+ ETH 0,15" transform="translate(116 258)" fill="#fff" font-size="18" font-family="SegoeUI, Segoe UI"><tspan x="0" y="0">+ ETH 0,15</tspan></text>
    <text id="_3_" data-name="3%" transform="translate(216 258)" fill="#fff" font-size="18" font-family="SegoeUI, Segoe UI"><tspan x="0" y="0">3%</tspan></text>
    <path id="Shape-7" data-name="Shape" d="M1.712,6.293l3.88-3.88,3.88,3.88a1,1,0,0,0,1.41,0h0a1,1,0,0,0,0-1.41L6.293.292a1,1,0,0,0-1.41,0L.292,4.883a1,1,0,0,0,0,1.41h0A1.017,1.017,0,0,0,1.712,6.293Z" transform="translate(247.408 246.417)" fill="#fff"/>
    <g id="Group" transform="translate(16 342)">
      <path id="Oval_Copy_4-2" data-name="Oval Copy 4" d="M20,0A20,20,0,1,1,0,20,20,20,0,0,1,20,0Z" opacity="0.2" fill="url(#linear-gradient-4)"/>
      <path id="Oval_Copy_3-2" data-name="Oval Copy 3" d="M16.364,0A16.364,16.364,0,1,1,0,16.364,16.364,16.364,0,0,1,16.364,0Z" transform="translate(3.636 3.636)" fill="url(#linear-gradient-5)"/>
      <path id="Oval_Copy_2-2" data-name="Oval Copy 2" d="M12.727,0A12.727,12.727,0,1,1,0,12.727,12.727,12.727,0,0,1,12.727,0Z" transform="translate(7.273 7.273)" fill="url(#linear-gradient-4)"/>
      <g id="bitcoin-logo" transform="translate(14.545 12.364)">
        <path id="Shape-8" data-name="Shape" d="M5.662,15.868V13.474q-.775,0-1.181-.009v2.4H2.991V13.436l-.523,0c-.232,0-.41,0-.532,0H0l.3-1.745H1.374a.516.516,0,0,0,.562-.487V7.362h.155a1,1,0,0,0-.155-.01V4.615a.767.767,0,0,0-.861-.648H0V2.4l2.052.01q.618,0,.939-.01V0h1.49V2.355q.794-.019,1.181-.019V0h1.49V2.4a8.75,8.75,0,0,1,1.355.214A4.478,4.478,0,0,1,9.6,3.046a2.207,2.207,0,0,1,.8.744,2.4,2.4,0,0,1,.354,1.091A2.253,2.253,0,0,1,9.484,7.342a2.915,2.915,0,0,1,1.694.983,2.791,2.791,0,0,1,.436,2.04,3.558,3.558,0,0,1-.315,1.193,2.645,2.645,0,0,1-.624.849,3.182,3.182,0,0,1-.939.557,5.76,5.76,0,0,1-1.176.329,11.7,11.7,0,0,1-1.408.143v2.432Z" fill="#fff"/>
      </g>
      <g id="Group_4-2" data-name="Group 4" transform="translate(52 2)">
        <text id="Bitcoin" transform="translate(0 17)" fill="#fff" font-size="16" font-family="SegoeUI, Segoe UI"><tspan x="0" y="0">Bitcoin</tspan></text>
        <text id="_17_Jun_2019" data-name="17 Jun 2019" transform="translate(0 34)" fill="#fff" font-size="14" font-family="SegoeUI, Segoe UI" opacity="0.6"><tspan x="0" y="0">17 Jun 2019</tspan></text>
      </g>
      <g id="Group_3-2" data-name="Group 3" transform="translate(162 2)">
        <text id="BTC_78" data-name="BTC 78" transform="translate(1 17)" fill="#fff" font-size="16" font-family="SegoeUI, Segoe UI"><tspan x="0" y="0">BTC 78</tspan></text>
        <text id="_578_672" data-name="$578,672" transform="translate(0 34)" fill="#fff" font-size="14" font-family="SegoeUI, Segoe UI" opacity="0.6"><tspan x="0" y="0">$578,672</tspan></text>
      </g>
    </g>
    <path id="Rectangle_3-2" data-name="Rectangle 3" d="M23.461,12.935c11.948,0,17.729,11.881,27.882,11.881,8.945,0,13.047-11.881,22.718-11.881C85.142,12.935,88,0,88,0V36H0S11.512,12.935,23.461,12.935Z" transform="translate(270 344)" fill="url(#linear-gradient)"/>
    <path id="Oval_Copy_4-3" data-name="Oval Copy 4" d="M20,0A20,20,0,1,1,0,20,20,20,0,0,1,20,0Z" transform="translate(16 567)" opacity="0.2" fill="url(#linear-gradient-3)"/>
    <path id="Oval_Copy_3-3" data-name="Oval Copy 3" d="M16.364,0A16.364,16.364,0,1,1,0,16.364,16.364,16.364,0,0,1,16.364,0Z" transform="translate(19.636 570.636)" fill="url(#linear-gradient-9)"/>
    <path id="Oval_Copy_2-3" data-name="Oval Copy 2" d="M12.727,0A12.727,12.727,0,1,1,0,12.727,12.727,12.727,0,0,1,12.727,0Z" transform="translate(23.273 574.273)" fill="url(#linear-gradient-3)"/>
    <g id="Group_4-3" data-name="Group 4" transform="translate(68 569)">
      <text id="Dash" transform="translate(0 17)" fill="#fff" font-size="16" font-family="SegoeUI, Segoe UI"><tspan x="0" y="0">Dash</tspan></text>
      <text id="_17_Jun_2019-2" data-name="17 Jun 2019" transform="translate(0 34)" fill="#fff" font-size="14" font-family="SegoeUI, Segoe UI" opacity="0.6"><tspan x="0" y="0">17 Jun 2019</tspan></text>
    </g>
    <g id="Group_3-3" data-name="Group 3" transform="translate(178 569)">
      <text id="DASH_78" data-name="DASH 78" transform="translate(1 17)" fill="#fff" font-size="16" font-family="SegoeUI, Segoe UI"><tspan x="0" y="0">DASH 78</tspan></text>
      <text id="_578_672-2" data-name="$578,672" transform="translate(0 34)" fill="#fff" font-size="14" font-family="SegoeUI, Segoe UI" opacity="0.6"><tspan x="0" y="0">$578,672</tspan></text>
    </g>
    <path id="Rectangle_3-3" data-name="Rectangle 3" d="M23.461,12.935c11.948,0,17.729,11.881,27.882,11.881,8.945,0,13.047-11.881,22.718-11.881C85.142,12.935,88,0,88,0V36H0S11.512,12.935,23.461,12.935Z" transform="translate(270 569)" fill="url(#linear-gradient)"/>
    <text id="Bank_Accounts" data-name="Bank Accounts" transform="translate(135 313)" fill="#fff" font-size="16" font-family="SegoeUI, Segoe UI" opacity="0.3"><tspan x="0" y="0">Bank Accounts</tspan></text>
    <path id="Line" d="M.5,1.5h106" transform="translate(251 306)" fill="none" stroke="#fff" stroke-linecap="square" stroke-miterlimit="10" stroke-width="1" opacity="0.15"/>
    <path id="Line_Copy" data-name="Line Copy" d="M.5,1.5h107" transform="translate(16 306)" fill="none" stroke="#fff" stroke-linecap="square" stroke-miterlimit="10" stroke-width="1" opacity="0.15"/>
    <g id="Group_3-4" data-name="Group 3" transform="translate(178 419)">
      <text id="EHT_24-2" data-name="EHT 24" transform="translate(1 17)" fill="#fff" font-size="16" font-family="SegoeUI, Segoe UI"><tspan x="0" y="0">EHT 24</tspan></text>
      <text id="_11_208-2" data-name="$11,208" transform="translate(0 34)" fill="#fff" font-size="14" font-family="SegoeUI, Segoe UI" opacity="0.6"><tspan x="0" y="0">$11,208</tspan></text>
    </g>
    <path id="Rectangle_3-4" data-name="Rectangle 3" d="M20.244,12.774C29.882,12.774,33.757,0,48.343,0c12.3,0,16.312,25.8,25.982,25.8C85.407,25.8,88,22.12,88,22.12V33.125H0S10.605,12.774,20.244,12.774Z" transform="translate(270 421.875)" fill="url(#linear-gradient)"/>
    <g id="Group_5" data-name="Group 5" transform="translate(16 417)">
      <g id="Group_4-4" data-name="Group 4" transform="translate(52 2)">
        <text id="Ethereum-2" data-name="Ethereum" transform="translate(0 17)" fill="#fff" font-size="16" font-family="SegoeUI, Segoe UI"><tspan x="0" y="0">Ethereum</tspan></text>
        <text id="_17_Sep_2019-2" data-name="17 Sep 2019" transform="translate(0 34)" fill="#fff" font-size="14" font-family="SegoeUI, Segoe UI" opacity="0.6"><tspan x="0" y="0">17 Sep 2019</tspan></text>
      </g>
      <path id="Oval_Copy_4-4" data-name="Oval Copy 4" d="M20,0A20,20,0,1,1,0,20,20,20,0,0,1,20,0Z" opacity="0.2" fill="url(#linear-gradient-13)"/>
      <path id="Oval_Copy_3-4" data-name="Oval Copy 3" d="M16.364,0A16.364,16.364,0,1,1,0,16.364,16.364,16.364,0,0,1,16.364,0Z" transform="translate(3.636 3.636)" fill="url(#linear-gradient-14)"/>
      <path id="Oval_Copy_2-4" data-name="Oval Copy 2" d="M12.727,0A12.727,12.727,0,1,1,0,12.727,12.727,12.727,0,0,1,12.727,0Z" transform="translate(7.273 7.273)" fill="url(#linear-gradient-13)"/>
      <g id="Ethereum_logo_2014-2" data-name="Ethereum_logo_2014" transform="translate(14 10)">
        <path id="Shape-9" data-name="Shape" d="M.131,0,0,.445V13.367l.131.131,6-3.546Z" transform="translate(5.867)" fill="#fff"/>
        <path id="Shape-10" data-name="Shape" d="M6,0,0,9.953,6,13.5V0Z" fill="#fff"/>
        <path id="Shape-11" data-name="Shape" d="M.074,3.544,0,3.634v4.6l.074.216L6.076,0Z" transform="translate(5.924 11.09)" fill="#fff"/>
        <path id="Shape-12" data-name="Shape" d="M6,8.453V3.544L0,0Z" transform="translate(0 11.09)" fill="#fff"/>
        <path id="Shape-13" data-name="Shape" d="M0,6.272,6,2.726,0,0Z" transform="translate(5.998 7.226)" fill="#fff"/>
        <path id="Shape-14" data-name="Shape" d="M0,2.726,6,6.272V0Z" transform="translate(0 7.226)" fill="#fff"/>
      </g>
    </g>
    <g id="Group_3-5" data-name="Group 3" transform="translate(178 494)">
      <text id="LTC_48" data-name="LTC 48" transform="translate(1 17)" fill="#fff" font-size="16" font-family="SegoeUI, Segoe UI"><tspan x="0" y="0">LTC 48</tspan></text>
      <text id="_4_032" data-name="$4,032" transform="translate(0 34)" fill="#fff" font-size="14" font-family="SegoeUI, Segoe UI" opacity="0.6"><tspan x="0" y="0">$4,032</tspan></text>
    </g>
    <path id="Rectangle_3-5" data-name="Rectangle 3" d="M18.6,0c9.638,0,10.832,12.744,25.419,12.744,12.3,0,23.968,8.4,33.639,8.4C88.743,21.143,88,18.3,88,18.3V29.306H0S8.966,0,18.6,0Z" transform="translate(270 500.694)" fill="url(#linear-gradient)"/>
    <g id="Group_2" data-name="Group 2" transform="translate(16 492)">
      <g id="Group_4-5" data-name="Group 4" transform="translate(52 2)">
        <text id="Litecoin" transform="translate(0 17)" fill="#fff" font-size="16" font-family="SegoeUI, Segoe UI"><tspan x="0" y="0">Litecoin</tspan></text>
        <text id="_13_Oct_2019" data-name="13 Oct 2019" transform="translate(0 34)" fill="#fff" font-size="14" font-family="SegoeUI, Segoe UI" opacity="0.6"><tspan x="0" y="0">13 Oct 2019</tspan></text>
      </g>
      <path id="Oval_Copy_4-5" data-name="Oval Copy 4" d="M20,0A20,20,0,1,1,0,20,20,20,0,0,1,20,0Z" opacity="0.2" fill="url(#linear-gradient-17)"/>
      <path id="Oval_Copy_3-5" data-name="Oval Copy 3" d="M16.364,0A16.364,16.364,0,1,1,0,16.364,16.364,16.364,0,0,1,16.364,0Z" transform="translate(3.636 3.636)" fill="url(#linear-gradient-18)"/>
      <path id="Oval_Copy_2-5" data-name="Oval Copy 2" d="M12.727,0A12.727,12.727,0,1,1,0,12.727,12.727,12.727,0,0,1,12.727,0Z" transform="translate(7.273 7.273)" fill="url(#linear-gradient-17)"/>
      <g id="Litecoin-2" data-name="Litecoin" transform="translate(14 13)">
        <path id="Shape-15" data-name="Shape" d="M5.194,10.511l.85-3.2,2.012-.735.5-1.881-.017-.047-1.98.723L7.986,0H3.939L2.073,7.012.515,7.581,0,9.519l1.557-.569-1.1,4.132h10.77l.69-2.572H5.194" transform="translate(0.039 0.017)" fill="#fff"/>
      </g>
    </g>
    <path id="Rectangle_4" data-name="Rectangle 4" d="M6,0H209a6,6,0,0,1,6,6V29a6,6,0,0,1-6,6H6a6,6,0,0,1-6-6V6A6,6,0,0,1,6,0Z" transform="translate(80 738)" fill="url(#linear-gradient-20)"/>
    <text id="SEND" transform="translate(221 763)" fill="#fff" font-size="15" font-family="SegoeUI, Segoe UI"><tspan x="0" y="0">SEND</tspan></text>
    <text id="RECEVIE" transform="translate(103 763)" fill="#fff" font-size="15" font-family="SegoeUI, Segoe UI"><tspan x="0" y="0">RECEVIE</tspan></text>
    <path id="Line-2" data-name="Line" d="M1.5.5v24" transform="translate(187 743)" fill="none" stroke="#000" stroke-linecap="square" stroke-miterlimit="10" stroke-width="1" opacity="0.168"/>
    <g id="Group_9" data-name="Group 9" transform="translate(28 582)">
      <path id="Shape-16" data-name="Shape" d="M6.487,0H.686L0,2.194H5.8Z" transform="translate(0.021 3.732)" fill="#fff"/>
      <path id="Shape-17" data-name="Shape" d="M15.318,2.205a48.528,48.528,0,0,1-1.69,5.181A3.435,3.435,0,0,1,10.26,9.6c-3.237.009-6.473,0-9.71,0A8.422,8.422,0,0,1,0,8.732l.351-1.1L.5,7.18H.912q4.149-.006,8.3,0c1.124,0,1.125,0,1.465-1.061.352-1.1.686-2.205,1.063-3.3.13-.377.054-.441-.325-.439-2.94.014-9.38.013-9.38.013L2.8,0S10.213,0,13.742.007a1.656,1.656,0,0,1,1.139.437A1.634,1.634,0,0,1,15.389,1.5,1.947,1.947,0,0,1,15.318,2.205Z" transform="translate(0.579 0.015)" fill="#fff"/>
      <path id="Shape-18" data-name="Shape" d="M0,.154.049,0H0Z" transform="translate(2.608 2.409)" fill="#fff"/>
    </g>
    <path id="Path_2" data-name="Path 2" d="M0,35.334S13.056,12.524,22.928,12.524s18.95,12.149,27.836,12.149S66.627,12.524,74.518,12.524,87.833,3.206,87.833,0" transform="translate(270.167 344.422)" fill="none" stroke="#ef8876" stroke-miterlimit="10" stroke-width="1"/>
    <path id="Path_3" data-name="Path 3" d="M0,32.306s6.815-17.32,20.474-19.442S34.611-1.208,47.39.1s15.6,23.136,25.3,25.169,13.742-1.808,14.872-3.043" transform="translate(270.437 421.829)" fill="none" stroke="#ef8876" stroke-miterlimit="10" stroke-width="1"/>
    <path id="Path_4" data-name="Path 4" d="M0,28.829S8.287-.639,18.8.014s10.608,12.3,20.853,12.3,32.5,8.49,35.907,8.965,10,1.272,12.234-1.88" transform="translate(270.204 500.59)" fill="none" stroke="#ef8876" stroke-miterlimit="10" stroke-width="1"/>
    <path id="Path_5" data-name="Path 5" d="M0,35.507S12.082,11.459,24.729,13.081s20.178,15.545,29.444,11.7,12.561-12.494,17.814-11.7S87.64,9.747,87.64,0" transform="translate(270.36 568.817)" fill="none" stroke="#ef8876" stroke-miterlimit="10" stroke-width="1"/>
  </g>
</svg>
